# xmcd CD database file generated by libcdaudio 0.99.6
# 
# Track frame offsets:
#       150
#       28790
#       47214
#       66258
#       88046
#       110646
#       136524
#       153264
#       156838
#       173454
#       193170
#       217554
# 
# Disc length: 3164 seconds
# 
# Revision: 1
# Processed by: cddbd v1.4PL0 Copyright (c) Steve Scherf et al.
# Submitted via: libcdaudio 0.99.6
# 
DISCID=970c5a0c
DTITLE=Jack L - Metropolis Blue
DYEAR=1900
DGENRE=
TTITLE0=When The Moon Is High
TTITLE1=Ode to Ed Wood
TTITLE2=Georgie Boy
TTITLE3=Rooftop Lullaby
TTITLE4=Bedsprings
TTITLE5=No Goodbyes
TTITLE6=I Aint Crazy
TTITLE7=High Moon
TTITLE8=Numero Uno
TTITLE9=Metropolis Blue
TTITLE10=Taste Of Fall
TTITLE11=Wish I Was A Dog
EXTD=
EXTT0=
EXTT1=
EXTT2=
EXTT3=
EXTT4=
EXTT5=
EXTT6=
EXTT7=
EXTT8=
EXTT9=
EXTT10=
EXTT11=
PLAYORDER=
